<?xml version="1.0" encoding="utf-8"?>
<!-- Generator: Adobe Illustrator 25.1.0, SVG Export Plug-In . SVG Version: 6.00 Build 0)  -->
<svg version="1.1" id="Layer_1" xmlns:svgjs="http://svgjs.com/svgjs"
	 xmlns="http://www.w3.org/2000/svg" xmlns:xlink="http://www.w3.org/1999/xlink" x="0px" y="0px" viewBox="0 0 1000 1000"
	 style="enable-background:new 0 0 1000 1000;" xml:space="preserve">
<style type="text/css">
	.st0{fill:#FFFFFF;}
</style>
<path d="M150,0h700c82.8,0,150,67.2,150,150v700c0,82.8-67.2,150-150,150H150C67.2,1000,0,932.8,0,850V150C0,67.2,67.2,0,150,0z"/>
<g transform="matrix(25.33070644525753,0,0,25.33070644525753,49.997508864742315,119.7947047093815)">
	<path class="st0" d="M17.7,2.5L17.7,2.5c-1.8,0-3.3,1.5-3.3,3.3c0,0.1,0,0.1,0,0.2c0.2,0.1,0.5,0.2,0.7,0.3c0-0.2,0-0.4,0-0.5
		c0-1.4,1.2-2.6,2.6-2.6l0,0l0,0c1.4,0,2.6,1.2,2.6,2.6c0,0.6-0.2,1.3-0.7,1.7c0.2,0.1,0.3,0.3,0.5,0.4c0.5-0.6,0.8-1.4,0.8-2.2l0,0
		C21.1,4,19.6,2.5,17.7,2.5C17.8,2.5,17.8,2.5,17.7,2.5z"/>
	<path class="st0" d="M17.7,13L17.7,13c-1.5,0-2.6,1.2-2.6,2.6c0,1.5,1.2,2.6,2.6,2.6c1.5,0,2.6-1.2,2.6-2.6v0
		C20.4,14.2,19.2,13,17.7,13C17.8,13,17.7,13,17.7,13z"/>
	<path class="st0" d="M17.7,7.5L17.7,7.5c-1.5,0-2.6,1.2-2.6,2.6s1.2,2.6,2.6,2.6c1.5,0,2.6-1.2,2.6-2.6S19.2,7.5,17.7,7.5
		C17.7,7.5,17.7,7.5,17.7,7.5z"/>
	<path class="st0" d="M16,9.1c0-0.3,0-0.5-0.1-0.7c-0.5,0.5-0.8,1.2-0.8,1.8c0,0.2,0,0.5,0.1,0.7C15.8,10.4,16,9.8,16,9.1z"/>
	<path class="st0" d="M14.5,10.2c0-0.9,0.4-1.8,1.1-2.5c-0.5-0.8-1.3-1.3-2.2-1.3l0,0c-1.4,0-2.6,1.2-2.6,2.6c0,0.9,0.4,1.7,1.2,2.2
		c0.4-0.3,0.9-0.4,1.4-0.4l0,0c0.4,0,0.9,0.1,1.2,0.3C14.5,10.8,14.5,10.5,14.5,10.2z"/>
	<path class="st0" d="M19.5,9.1c0,0.7,0.3,1.3,0.8,1.8c0.1-0.2,0.1-0.5,0.1-0.7c0-0.7-0.3-1.4-0.8-1.8C19.5,8.6,19.5,8.8,19.5,9.1z"
		/>
	<path class="st0" d="M22.2,6.5L22.2,6.5c-0.9,0-1.7,0.5-2.2,1.2c0.7,0.6,1.1,1.5,1.1,2.5l0,0c0,0.3-0.1,0.7-0.2,1
		c0.4-0.2,0.8-0.3,1.3-0.3l0,0c0.5,0,1,0.2,1.4,0.4c1.2-0.8,1.5-2.4,0.7-3.6C23.9,6.9,23,6.5,22.2,6.5z"/>
	<path class="st0" d="M13.4,16.1c-1.4-0.1-2.6-1.3-2.5-2.8c0.1-1.3,1.1-2.4,2.5-2.5l0,0c0.4,0,0.9,0.1,1.2,0.3
		c-0.1-0.3-0.1-0.5-0.1-0.8c-0.4-0.1-0.7-0.2-1.1-0.2c-1.8,0-3.3,1.5-3.3,3.3c0,1.8,1.5,3.3,3.3,3.3c0.4,0,0.8-0.1,1.2-0.2
		c-0.1-0.2-0.1-0.4-0.1-0.7C14.1,16,13.8,16.1,13.4,16.1z"/>
	<path class="st0" d="M22.2,10.2c-0.4,0-0.8,0.1-1.1,0.2c0,0.3-0.1,0.5-0.1,0.8c0.4-0.2,0.8-0.3,1.3-0.3l0,0c1.5,0,2.6,1.2,2.6,2.6
		s-1.2,2.6-2.6,2.6c-0.4,0-0.8-0.1-1.1-0.3c0,0.2,0,0.4-0.1,0.7c0.4,0.2,0.8,0.2,1.2,0.2c1.8,0,3.3-1.5,3.3-3.3l0,0
		C25.4,11.6,24,10.2,22.2,10.2C22.2,10.2,22.2,10.2,22.2,10.2z"/>
	<path class="st0" d="M17.6,31.8c-0.7-0.1-0.8-0.7-1-1.2c-1.3-3.8-1.3-7.8,0.1-11.6c0-0.1,0.1-0.1,0.2-0.1c0,0,0,0,0,0
		c0.5,0.1,1.1,0.1,1.6,0c0.1,0,0.2,0,0.2,0.1c1.4,3.8,1.4,8,0,11.8c-0.2,0.4-0.3,0.8-0.8,0.9L17.6,31.8z"/>
	<path class="st0" d="M36.2,1.7c-0.1,0.5-0.5,0.9-0.9,1.3c-2.6,2.8-6,4.6-9.7,5.3c-0.1,0-0.2,0-0.2-0.1c-0.2-0.5-0.5-1-0.8-1.4
		c-0.1-0.1,0-0.1,0-0.1c2.7-3.2,6.4-5.3,10.4-5.9c0.6-0.1,1.1,0.2,1.2,0.8C36.2,1.6,36.2,1.6,36.2,1.7z"/>
	<path class="st0" d="M-0.6,1.6c0-0.5,0.4-1,1-1c0.1,0,0.1,0,0.2,0c4.1,0.7,7.8,2.8,10.4,6c0.1,0.1,0,0.1,0,0.2
		c-0.4,0.4-0.6,0.9-0.8,1.4c0,0.1-0.1,0.1-0.2,0.1C5.9,7.6,2.2,5.4-0.4,2.2C-0.5,2.1-0.6,1.9-0.6,1.6z"/>
</g>
</svg>
