<?xml version="1.0" standalone="no"?>
<!DOCTYPE svg PUBLIC "-//W3C//DTD SVG 20010904//EN"
 "http://www.w3.org/TR/2001/REC-SVG-20010904/DTD/svg10.dtd">
<svg version="1.0" xmlns="http://www.w3.org/2000/svg"
 width="700.000000pt" height="700.000000pt" viewBox="0 0 700.000000 700.000000"
 preserveAspectRatio="xMidYMid meet">
<metadata>
Created by potrace 1.14, written by Peter Selinger 2001-2017
</metadata>
<g transform="translate(0.000000,700.000000) scale(0.100000,-0.100000)"
fill="#000000" stroke="none">
<path d="M920 6993 c-136 -15 -314 -81 -441 -165 -230 -150 -377 -358 -451
-635 l-23 -88 0 -2605 0 -2605 24 -89 c104 -396 382 -672 786 -780 l80 -21
2605 0 2605 0 90 24 c396 104 670 381 779 786 l21 80 0 2605 0 2605 -21 80
c-56 208 -149 374 -288 510 -136 135 -288 221 -486 276 l-85 24 -2580 1
c-1419 1 -2596 -1 -2615 -3z m-310 -970 c643 -142 1223 -486 1645 -976 l58
-68 -22 -30 c-55 -74 -81 -119 -107 -183 -16 -38 -35 -71 -42 -74 -19 -7 -196
31 -342 73 -486 140 -933 402 -1293 758 -152 150 -245 261 -257 309 -26 95 39
199 137 219 46 9 73 5 223 -28z m6087 -29 c15 -11 39 -41 52 -68 22 -43 23
-51 11 -89 -19 -64 -58 -113 -212 -269 -374 -376 -812 -640 -1313 -792 -111
-34 -328 -86 -358 -86 -9 0 -29 30 -50 74 -20 41 -54 102 -76 135 -23 33 -41
65 -41 71 0 16 324 338 410 407 385 309 820 518 1278 614 162 34 255 35 299 3z
m-3026 -303 c192 -60 346 -225 380 -406 14 -74 4 -212 -21 -301 -9 -36 -15
-64 -11 -62 3 2 34 18 68 36 263 137 567 -17 639 -323 27 -117 1 -251 -67
-351 l-29 -42 45 -37 c98 -79 185 -241 207 -380 20 -130 -29 -286 -129 -410
-63 -77 -181 -158 -275 -187 -130 -40 -401 -25 -383 21 4 9 9 37 12 62 l5 46
42 -21 c34 -18 59 -21 151 -21 106 0 113 1 185 36 90 44 146 90 193 162 128
193 94 460 -77 603 -25 20 -60 43 -78 49 -18 7 -60 23 -93 35 -85 31 -206 32
-298 1 -38 -13 -70 -21 -73 -19 -2 3 3 34 12 69 29 111 8 263 -51 380 -27 53
-95 140 -105 134 -5 -3 -28 11 -50 31 l-41 37 25 26 c39 41 74 122 88 200 34
196 -81 405 -272 495 -61 29 -72 31 -181 31 -112 0 -117 -1 -190 -37 -170 -84
-269 -240 -269 -424 0 -41 -4 -74 -9 -74 -5 0 -34 11 -66 25 l-57 26 7 72 c26
261 213 475 465 532 83 19 214 12 301 -14z m-812 -687 c68 -20 165 -87 212
-146 45 -57 47 -68 17 -94 -37 -33 -104 -146 -133 -224 -23 -62 -28 -93 -29
-175 0 -55 3 -117 7 -137 l8 -37 -48 22 c-40 18 -66 22 -158 22 -105 0 -113
-2 -180 -34 -230 -112 -335 -391 -232 -614 78 -169 265 -287 436 -275 36 3 87
14 112 25 l47 21 5 -47 c2 -25 6 -52 8 -60 5 -18 -71 -39 -171 -47 -198 -16
-398 84 -515 256 -158 233 -132 528 65 730 l65 68 -33 49 c-53 78 -75 166 -70
281 3 85 8 106 38 167 39 82 128 176 208 218 103 55 223 66 341 31z m733 -185
c184 -39 339 -211 369 -409 12 -75 3 -181 -14 -170 -4 3 -23 -27 -42 -66 -78
-161 -240 -264 -415 -264 -173 0 -341 112 -423 281 -34 69 -37 82 -37 160 1
151 38 247 135 345 112 113 265 157 427 123z m51 -990 c276 -92 388 -394 245
-660 -136 -257 -499 -311 -714 -107 -97 91 -144 201 -144 333 0 179 97 335
255 411 117 56 234 64 358 23z m44 -1095 c73 -214 133 -502 154 -744 13 -147
7 -480 -11 -615 -43 -319 -158 -713 -232 -792 -12 -13 -45 -32 -75 -43 -50
-19 -56 -19 -91 -5 -20 9 -47 25 -59 37 -30 28 -74 136 -122 299 -173 593
-170 1184 10 1771 16 53 36 111 43 130 l14 33 173 -1 173 -1 23 -69z"/>
</g>
</svg>
