<?xml version="1.0" encoding="utf-8"?>
<!-- Generator: Adobe Illustrator 17.1.0, SVG Export Plug-In . SVG Version: 6.00 Build 0)  -->
<!DOCTYPE svg PUBLIC "-//W3C//DTD SVG 1.1 Tiny//EN" "http://www.w3.org/Graphics/SVG/1.1/DTD/svg11-tiny.dtd">
<svg version="1.1" baseProfile="tiny" id="Layer_1" xmlns:sketch="http://www.bohemiancoding.com/sketch/ns"
	 xmlns="http://www.w3.org/2000/svg" xmlns:xlink="http://www.w3.org/1999/xlink" x="0px" y="0px" viewBox="0 0 114 124"
	 xml:space="preserve">
<title>RG</title>
<desc>Created with Sketch.</desc>
<g id="Page-1" sketch:type="MSPage">
	<g id="RG" sketch:type="MSLayerGroup">
		<g id="identity" sketch:type="MSShapeGroup">
			<g id="ResearchGate-Logo">
				<path id="R" fill="#219AB3" d="M76.3,123.2c2.5,0,5.1-0.4,6.7-1.2v-3.8c-5.3,0-10.5-3.7-14.3-7.7c-6.4-7-15-18.3-22.2-31
					c11.8-2.8,20.6-13.9,20.6-25c0-16.4-12.7-23.9-29.3-23.9c-8.6,0-15.5,0.4-21.9,0.4c-5.8,0-11.7,0-15.3-0.1v4.2l5.5,1
					c3.8,0.7,6,2.5,6,11.5v57.5c0,9.1-2.2,10.8-6,11.5l-5.5,1v4.2c3.9-0.1,10.8-0.4,17.7-0.4c6.6,0,15,0.3,18.7,0.4v-4.2l-7.6-1
					c-3.9-0.6-6-2.5-6-11.5V80.8c3.5,0.3,6.6,0.3,11.2,0.3C43.5,97,52,109,56.8,114.6C61.2,119.8,67.9,123.2,76.3,123.2L76.3,123.2
					L76.3,123.2z M33.9,74.6c-5,0-7.2-0.1-10.5-0.4V37.5c3.4-0.3,7.9-0.3,11.8-0.3c12.3,0,19.6,6.4,19.6,18.1
					C54.7,66.8,46.9,74.6,33.9,74.6L33.9,74.6z M78.4,37.7C78.3,36.9,78.1,36,78,35c-0.1-1-0.2-2.3-0.3-3.7c0-1.4-0.1-3.2-0.1-5.2
					s0-3.7,0.1-5.2c0-1.4,0.1-2.7,0.3-3.7s0.3-1.9,0.4-2.7s0.3-1.5,0.6-2.2c1.2-3.8,3.3-6.6,6.2-8.6s6.4-2.9,10.6-2.9
					c2.2,0,4.1,0.3,5.8,0.8c1.7,0.5,3.3,1.2,4.6,2.1c1.3,0.9,2.5,1.9,3.5,3.1c1,1.2,1.8,2.4,2.4,3.8c0.2,0.4,0.2,0.8-0.2,1l-5.3,2.2
					c-0.4,0.2-0.8,0.1-1-0.4c-1.2-2.2-2.2-3.7-3.9-4.7s-3.2-1.5-5.8-1.5c-2.8,0-4,0.5-5.8,1.8s-3,2.8-3.8,5.1
					c-0.1,0.4-0.3,1-0.4,1.6c-0.1,0.6-0.3,1.4-0.3,2.3c-0.1,0.9-0.1,2-0.2,3.3c0,1.3-0.1,2.9-0.1,4.8c0,1.9,0,3.5,0.1,4.8
					c0,1.3,0.1,2.4,0.2,3.3c0.1,0.9,0.2,1.7,0.3,2.3c0.1,0.6,0.3,1.2,0.4,1.6c0.8,2.3,1.8,3.6,3.4,4.7c1.6,1,3.4,1.8,6.2,1.8
					c2.5,0,4.8-0.7,6.3-1.8c1.5-1.1,2.7-2.5,3.2-4.5c0.2-0.8,0.6-1.8,0.7-3.1c0.2-1.2,0.2-2.6,0.2-4.4c0-0.3-0.1-0.4-0.4-0.4h-8.5
					c-0.5,0-0.7-0.2-0.7-0.7v-4.9c0-0.5,0.2-0.7,0.7-0.7h15.6c0.5,0,0.7,0.2,0.7,0.7V29c0,2.2,0,4.3-0.2,6.2
					c-0.2,1.9-0.5,3.5-0.9,4.7c-1.2,3.7-3.1,6.4-6,8.4c-2.9,2-6.6,3.1-10.7,3.1c-4.2,0-7.7-1-10.6-2.9s-4.9-4.8-6.2-8.6
					C78.8,39.2,78.6,38.5,78.4,37.7L78.4,37.7z"/>
			</g>
		</g>
	</g>
</g>
</svg>
