<svg id="Layer_1" data-name="Layer 1" xmlns="http://www.w3.org/2000/svg" viewBox="0 0 35.53 30.04"><defs><style>.cls-1{fill:#fff;}</style></defs><path class="cls-1" d="M17.75,1.77h0a3.17,3.17,0,0,0-3.17,3.17c0,.07,0,.13,0,.19a3.21,3.21,0,0,1,.67.33,3,3,0,0,1,0-.52,2.53,2.53,0,0,1,2.53-2.53h0a2.54,2.54,0,0,1,2.54,2.53,2.45,2.45,0,0,1-.66,1.68,3.2,3.2,0,0,1,.47.43,3.15,3.15,0,0,0,.82-2.11h0A3.17,3.17,0,0,0,17.75,1.77Z" transform="translate(0)"/><path class="cls-1" d="M17.74,11.89h0a2.54,2.54,0,1,0,2.54,2.54A2.53,2.53,0,0,0,17.74,11.89Z" transform="translate(0)"/><path class="cls-1" d="M17.75,6.62h0a2.54,2.54,0,1,0,2.54,2.54A2.54,2.54,0,0,0,17.75,6.62Z" transform="translate(0)"/><path class="cls-1" d="M16.07,8.1A2.47,2.47,0,0,0,16,7.38a2.51,2.51,0,0,0-.73,1.78,2.35,2.35,0,0,0,.11.71A2.49,2.49,0,0,0,16.07,8.1Z" transform="translate(0)"/><path class="cls-1" d="M14.58,9.16a3.16,3.16,0,0,1,1.1-2.38,2.5,2.5,0,0,0-2.14-1.21h0a2.53,2.53,0,0,0-1.4,4.64,2.49,2.49,0,0,1,1.4-.43h0a2.47,2.47,0,0,1,1.2.32A3.25,3.25,0,0,1,14.58,9.16Z" transform="translate(0)"/><path class="cls-1" d="M19.43,8.1a2.49,2.49,0,0,0,.74,1.77,2.35,2.35,0,0,0,.12-.71,2.52,2.52,0,0,0-.74-1.78A2.47,2.47,0,0,0,19.43,8.1Z" transform="translate(0)"/><path class="cls-1" d="M22,5.57h0a2.53,2.53,0,0,0-2.15,1.2,3.15,3.15,0,0,1,1.1,2.39h0a3.25,3.25,0,0,1-.16.94A2.48,2.48,0,0,1,22,9.78h0a2.49,2.49,0,0,1,1.4.43A2.53,2.53,0,0,0,22,5.57Z" transform="translate(0)"/><path class="cls-1" d="M13.53,14.85a2.54,2.54,0,0,1,0-5.07h0a2.58,2.58,0,0,1,1.2.31,3.68,3.68,0,0,1-.14-.75,3.12,3.12,0,0,0-1.07-.19,3.17,3.17,0,0,0,0,6.34,3.21,3.21,0,0,0,1.17-.23,3.43,3.43,0,0,1-.11-.64A2.49,2.49,0,0,1,13.53,14.85Z" transform="translate(0)"/><path class="cls-1" d="M22,9.15a3.12,3.12,0,0,0-1.07.19,2.83,2.83,0,0,1-.14.76A2.48,2.48,0,0,1,22,9.78h0a2.54,2.54,0,0,1,0,5.08,2.59,2.59,0,0,1-1.08-.25,3.29,3.29,0,0,1-.1.64,3.07,3.07,0,0,0,1.18.24,3.17,3.17,0,0,0,3.16-3.17h0A3.16,3.16,0,0,0,22,9.15Z" transform="translate(0)"/><path class="cls-1" d="M17.63,30c-.63-.13-.75-.67-.92-1.16a16.85,16.85,0,0,1,.09-11.17A.14.14,0,0,1,17,17.6a4,4,0,0,0,1.55,0c.12,0,.15,0,.18.12a16.9,16.9,0,0,1,0,11.44c-.15.43-.32.78-.81.88Z" transform="translate(0)"/><path class="cls-1" d="M35.53,1c-.06.49-.53.83-.91,1.23a16.79,16.79,0,0,1-9.38,5.12c-.11,0-.15,0-.19-.11a3.65,3.65,0,0,0-.81-1.38c-.07-.07,0-.1,0-.14A16.8,16.8,0,0,1,34.33,0,1,1,0,0,1,35.53,1Z" transform="translate(0)"/><path class="cls-1" d="M0,.91A.94.94,0,0,1,1.14,0,16.68,16.68,0,0,1,11.22,5.77c.06.06,0,.1,0,.16a3.67,3.67,0,0,0-.77,1.32c0,.11-.08.14-.2.12a16.81,16.81,0,0,1-10-5.9A.88.88,0,0,1,0,.91Z" transform="translate(0)"/></svg>