<?xml version="1.0" encoding="utf-8"?>
<!-- Generator: Adobe Illustrator 17.1.0, SVG Export Plug-In . SVG Version: 6.00 Build 0)  -->
<!DOCTYPE svg PUBLIC "-//W3C//DTD SVG 1.1 Tiny//EN" "http://www.w3.org/Graphics/SVG/1.1/DTD/svg11-tiny.dtd">
<svg version="1.1" baseProfile="tiny" id="Layer_1" xmlns="http://www.w3.org/2000/svg" xmlns:xlink="http://www.w3.org/1999/xlink"
	 x="0px" y="0px" viewBox="0 0 29.94 32.442" xml:space="preserve">
<circle fill="#FFFFFF" cx="14.97" cy="1.963" r="1.963"/>
<circle fill="#FFFFFF" cx="14.97" cy="30.402" r="2.04"/>
<path fill="#FFFFFF" d="M17.754,1.482c0.027,0.157,0.049,0.316,0.049,0.48c0,0.358-0.074,0.697-0.195,1.013
	c6.169,1.23,10.833,6.682,10.833,13.207c0,6.486-4.609,11.914-10.723,13.186c0.122,0.323,0.197,0.668,0.197,1.033
	c0,0.159-0.023,0.311-0.047,0.463c6.872-1.354,12.073-7.42,12.073-14.683C29.94,8.88,24.681,2.792,17.754,1.482z"/>
<path fill="#FFFFFF" d="M12.026,30.403c0-0.365,0.075-0.711,0.197-1.033C6.109,28.097,1.5,22.668,1.5,16.183
	c0-6.525,4.664-11.978,10.833-13.207c-0.122-0.315-0.195-0.655-0.195-1.013c0-0.164,0.022-0.323,0.049-0.48
	C5.259,2.792,0,8.88,0,16.183c0,7.263,5.201,13.329,12.073,14.683C12.049,30.714,12.026,30.561,12.026,30.403z"/>
<g>
	<path fill="#FFFFFF" d="M14.97,6.471c-0.001,0-0.001,0-0.002,0c-2.146,0.001-3.885,1.742-3.884,3.888
		c0,0.08,0.019,0.155,0.024,0.234c0.289,0.104,0.565,0.231,0.817,0.396c-0.042-0.204-0.065-0.414-0.065-0.63
		c-0.001-1.715,1.393-3.111,3.108-3.112h0.002c1.714,0,3.109,1.394,3.11,3.112c0,0.794-0.309,1.511-0.801,2.061
		c0.208,0.155,0.398,0.33,0.572,0.523c0.617-0.688,1.004-1.587,1.005-2.584c0-0.001,0-0.003,0-0.004
		C18.855,8.209,17.115,6.471,14.97,6.471z"/>
</g>
<path fill="#FFFFFF" d="M14.957,18.883h-0.002c-1.714,0.001-3.109,1.397-3.108,3.112c0.001,1.713,1.395,3.107,3.108,3.108
	c1.716,0,3.111-1.394,3.112-3.108C18.066,20.278,16.671,18.883,14.957,18.883z"/>
<path fill="#FFFFFF" d="M14.97,12.418h-0.002c-1.714,0.001-3.109,1.397-3.108,3.112c0.001,1.713,1.395,3.107,3.108,3.108
	c1.716,0,3.111-1.394,3.112-3.108C18.079,13.813,16.684,12.418,14.97,12.418z"/>
<g>
	<path fill="#FFFFFF" d="M12.908,14.237c0-0.313-0.06-0.609-0.147-0.894c-0.557,0.563-0.902,1.335-0.901,2.187
		c0,0.307,0.059,0.598,0.142,0.878C12.557,15.847,12.908,15.086,12.908,14.237z"/>
	<path fill="#FFFFFF" d="M11.084,15.53c-0.001-1.173,0.529-2.211,1.35-2.924c-0.549-0.885-1.521-1.481-2.636-1.481H9.796
		c-1.714,0.001-3.109,1.397-3.108,3.112c0.001,1.077,0.553,2.026,1.387,2.584c0.493-0.33,1.084-0.523,1.721-0.524h0.002
		c0.537,0,1.039,0.144,1.48,0.386C11.164,16.317,11.085,15.935,11.084,15.53z"/>
</g>
<g>
	<path fill="#FFFFFF" d="M17.032,14.237c0,0.849,0.351,1.61,0.906,2.171c0.083-0.28,0.142-0.571,0.142-0.878
		c0-0.852-0.346-1.624-0.902-2.187C17.092,13.628,17.032,13.924,17.032,14.237z"/>
	<path fill="#FFFFFF" d="M20.142,11.125H20.14c-1.115,0.001-2.086,0.596-2.635,1.48c0.82,0.712,1.35,1.75,1.35,2.921
		c0,0.001,0,0.003,0,0.004c0,0.404-0.08,0.786-0.194,1.153c0.441-0.241,0.942-0.386,1.479-0.386h0.002
		c0.637,0,1.229,0.194,1.722,0.524c0.835-0.558,1.387-1.507,1.387-2.584C23.251,12.52,21.856,11.125,20.142,11.125z"/>
</g>
<g>
	<path fill="#FFFFFF" d="M9.797,22.517c-1.713-0.001-3.107-1.395-3.108-3.108c-0.001-1.715,1.393-3.111,3.108-3.112h0.002
		c0.536,0,1.039,0.141,1.479,0.381c-0.092-0.296-0.152-0.604-0.17-0.926c-0.409-0.148-0.849-0.231-1.311-0.231
		c-2.146,0.001-3.885,1.742-3.884,3.888c0.001,2.144,1.739,3.883,3.884,3.884c0.505,0,0.985-0.103,1.428-0.278
		c-0.07-0.255-0.113-0.517-0.13-0.79C10.698,22.408,10.261,22.517,9.797,22.517z"/>
</g>
<g>
	<path fill="#FFFFFF" d="M20.14,15.522c-0.46,0-0.899,0.083-1.307,0.231c-0.019,0.322-0.078,0.63-0.17,0.926
		c0.44-0.24,0.941-0.381,1.477-0.381h0.002c1.714,0,3.109,1.394,3.11,3.112c-0.001,1.714-1.396,3.108-3.112,3.108
		c-0.474,0-0.918-0.115-1.32-0.306c-0.016,0.274-0.059,0.539-0.129,0.796c0.448,0.181,0.935,0.286,1.448,0.286
		c2.146,0.001,3.887-1.738,3.888-3.884c0-0.001,0-0.003,0-0.004C24.027,17.259,22.286,15.52,20.14,15.522z"/>
</g>
</svg>
